<svg width="17" height="13" viewBox="0 0 17 13" fill="none" xmlns="http://www.w3.org/2000/svg">
<path d="M15.7502 3.61328H11.5316L9.62298 5.4732C9.36448 5.72502 9.02234 5.86373 8.65994 5.86373C8.2883 5.86373 7.94017 5.71887 7.67961 5.45585C7.17618 4.94716 7.15777 4.14414 7.61787 3.61331H1.30662C0.80021 3.61328 0.389648 4.0205 0.389648 4.52301V4.82626C0.389648 5.32124 0.788701 5.72341 1.28542 5.73461L2.27405 11.7396C2.39362 12.4668 3.02743 13.0008 3.77025 13.0008H13.2849C14.028 13.0008 14.6613 12.4668 14.7811 11.7396L15.77 5.73461C16.2669 5.72411 16.6671 5.3219 16.6671 4.82626V4.52301C16.6671 4.0205 16.2566 3.61328 15.7502 3.61328ZM5.27197 11.3612C5.19065 11.4506 5.07476 11.5018 4.95357 11.5018H4.71421C4.50063 11.5018 4.31977 11.3459 4.28979 11.1364L3.76335 7.44439C3.74605 7.32236 3.78268 7.19897 3.864 7.10595C3.94536 7.01318 4.06356 6.9597 4.18771 6.9597H4.56374C4.7833 6.9597 4.96715 7.12402 4.98998 7.34043L5.37981 11.0326C5.39224 11.1524 5.35307 11.2717 5.27197 11.3612ZM7.72523 11.3736C7.64479 11.4554 7.53422 11.5018 7.41879 11.5018H7.17367C6.94693 11.5018 6.75942 11.3265 6.74607 11.1021L6.52489 7.4099C6.51796 7.2931 6.55989 7.17838 6.64077 7.09337C6.72184 7.00813 6.83454 6.95967 6.95272 6.95967H7.33473C7.56764 6.95967 7.75775 7.14432 7.76303 7.37489L7.84734 11.0671C7.84988 11.1814 7.80588 11.292 7.72523 11.3736ZM10.3094 11.1021C10.2958 11.3265 10.1082 11.5018 9.88152 11.5018H9.63637C9.52096 11.5018 9.41058 11.4554 9.33018 11.3736C9.2493 11.292 9.2053 11.1814 9.20785 11.0671L9.29241 7.37493C9.2975 7.14436 9.48781 6.9597 9.72075 6.9597H10.1027C10.2205 6.9597 10.3336 7.00816 10.4144 7.0934C10.4953 7.17841 10.5372 7.29313 10.5303 7.40993L10.3094 11.1021ZM13.2918 7.44439L12.7654 11.1364C12.7357 11.3459 12.5546 11.5018 12.3412 11.5018H12.1018C11.9804 11.5018 11.8645 11.4506 11.7834 11.3612C11.7021 11.2717 11.6629 11.1524 11.6756 11.0326L12.0652 7.34043C12.088 7.12402 12.2721 6.9597 12.4914 6.9597H12.8675C12.9917 6.9597 13.1096 7.01318 13.191 7.10595C13.2725 7.19897 13.3093 7.32236 13.2918 7.44439Z" fill="#828282"/>
<path d="M9.21589 5.06107L13.0271 1.34786C13.3396 1.04322 13.3439 0.545283 13.037 0.235407C12.7301 -0.0744683 12.2279 -0.0790406 11.9155 0.22538L8.10445 3.93903C7.79203 4.24342 7.78764 4.74136 8.09431 5.05123C8.40145 5.36111 8.90322 5.36568 9.21589 5.06107Z" fill="#828282"/>
</svg>
