<svg width="26" height="26" viewBox="0 0 26 26" fill="none" xmlns="http://www.w3.org/2000/svg">
<path d="M13 2.4375C10.9109 2.4375 8.86879 3.05698 7.13179 4.2176C5.3948 5.37822 4.04098 7.02786 3.24153 8.95791C2.44208 10.8879 2.2329 13.0117 2.64046 15.0606C3.04802 17.1096 4.054 18.9916 5.53119 20.4688C7.00838 21.946 8.89044 22.952 10.9394 23.3595C12.9883 23.7671 15.1121 23.5579 17.0421 22.7585C18.9721 21.959 20.6218 20.6052 21.7824 18.8682C22.943 17.1312 23.5625 15.0891 23.5625 13C23.5595 10.1996 22.4458 7.51466 20.4656 5.53445C18.4853 3.55424 15.8004 2.44046 13 2.4375ZM21.9375 13C21.9384 14.1466 21.7177 15.2826 21.2875 16.3455L16.7477 13.5535C16.5546 13.4344 16.3387 13.3572 16.1139 13.327L13.7963 13.0142C13.4769 12.9726 13.1523 13.0261 12.8633 13.1681C12.5742 13.3101 12.3335 13.5343 12.1713 13.8125H11.2856L10.8997 13.0142C10.793 12.7919 10.6368 12.597 10.4432 12.4444C10.2496 12.2918 10.0236 12.1855 9.7825 12.1337L8.97 11.958L9.76422 10.5625H11.4613C11.736 10.562 12.006 10.4921 12.2464 10.3594L13.4906 9.67281C13.5999 9.61188 13.702 9.53899 13.7952 9.45547L16.5283 6.98344C16.8023 6.73787 16.9844 6.40624 17.0446 6.04324C17.1048 5.68025 17.0395 5.30758 16.8594 4.98672L16.8228 4.9207C18.3521 5.64586 19.6445 6.78985 20.5498 8.21991C21.4551 9.64998 21.9363 11.3075 21.9375 13ZM14.5549 4.19859L15.4375 5.77891L12.7045 8.25094L11.4613 8.9375H9.76422C9.47857 8.93708 9.19785 9.01196 8.95036 9.15461C8.70288 9.29725 8.49736 9.50262 8.35454 9.75L7.46789 11.2968L6.43704 8.55055L7.54813 5.92312C8.5316 5.16323 9.66295 4.61713 10.8697 4.31981C12.0765 4.0225 13.332 3.98052 14.5559 4.19656L14.5549 4.19859ZM4.0625 13C4.06115 11.6716 4.35752 10.3597 4.92985 9.16094L6.08157 12.2352C6.17755 12.4898 6.33589 12.7161 6.54209 12.8936C6.74828 13.071 6.99572 13.1939 7.26172 13.2509L9.43821 13.7191L9.82516 14.5234C9.95945 14.797 10.1676 15.0276 10.426 15.1891C10.6844 15.3506 10.9829 15.4367 11.2877 15.4375H11.438L10.7037 17.0859C10.5743 17.3761 10.5329 17.6979 10.5845 18.0115C10.6361 18.325 10.7785 18.6166 10.9941 18.85L11.0084 18.8642L13 20.9158L12.803 21.9314C10.4689 21.8771 8.24846 20.9127 6.6155 19.2441C4.98254 17.5755 4.06638 15.3347 4.0625 13ZM14.4808 21.8136L14.5956 21.2235C14.6427 20.9728 14.6305 20.7146 14.56 20.4694C14.4895 20.2243 14.3625 19.9991 14.1893 19.8118C14.1843 19.8073 14.1796 19.8026 14.1751 19.7976L12.1875 17.747L13.5789 14.625L15.8966 14.9378L20.54 17.7937C19.8673 18.8502 18.9804 19.7539 17.9367 20.4463C16.893 21.1387 15.7157 21.6045 14.4808 21.8136Z" fill="#C3C5C8"/>
</svg>
