<svg width="30" height="30" viewBox="0 0 30 30" fill="none" xmlns="http://www.w3.org/2000/svg">
<g filter="url(#filter0_d_3_13374)">
<circle cx="15" cy="13" r="12" fill="white"/>
</g>
<path fill-rule="evenodd" clip-rule="evenodd" d="M14.6316 18.1316C14.6316 18.6063 15.0253 19 15.5 19C15.9747 19 16.3684 18.6063 16.3684 18.1316V14.3684H20.1316C20.6063 14.3684 21 13.9747 21 13.5C21 13.0253 20.6063 12.6316 20.1316 12.6316H16.3684V8.86842C16.3684 8.39368 15.9747 8 15.5 8C15.0253 8 14.6316 8.39368 14.6316 8.86842V12.6316H10.8684C10.3937 12.6316 10 13.0253 10 13.5C10 13.9747 10.3937 14.3684 10.8684 14.3684H14.6316V18.1316Z" fill="#1DBF73"/>
<defs>
<filter id="filter0_d_3_13374" x="0" y="0" width="30" height="30" filterUnits="userSpaceOnUse" color-interpolation-filters="sRGB">
<feFlood flood-opacity="0" result="BackgroundImageFix"/>
<feColorMatrix in="SourceAlpha" type="matrix" values="0 0 0 0 0 0 0 0 0 0 0 0 0 0 0 0 0 0 127 0" result="hardAlpha"/>
<feOffset dy="2"/>
<feGaussianBlur stdDeviation="1.5"/>
<feComposite in2="hardAlpha" operator="out"/>
<feColorMatrix type="matrix" values="0 0 0 0 0.729167 0 0 0 0 0.707899 0 0 0 0 0.707899 0 0 0 0.2 0"/>
<feBlend mode="normal" in2="BackgroundImageFix" result="effect1_dropShadow_3_13374"/>
<feBlend mode="normal" in="SourceGraphic" in2="effect1_dropShadow_3_13374" result="shape"/>
</filter>
</defs>
</svg>
