<svg width="26" height="26" viewBox="0 0 26 26" fill="none" xmlns="http://www.w3.org/2000/svg">
<path d="M9.75 21.9375C9.75 22.2589 9.6547 22.5731 9.47614 22.8403C9.29758 23.1075 9.04379 23.3158 8.74686 23.4388C8.44993 23.5618 8.1232 23.594 7.80798 23.5313C7.49276 23.4686 7.20321 23.3138 6.97595 23.0865C6.74869 22.8593 6.59392 22.5697 6.53122 22.2545C6.46852 21.9393 6.5007 21.6126 6.6237 21.3156C6.74669 21.0187 6.95497 20.7649 7.2222 20.5864C7.48943 20.4078 7.80361 20.3125 8.125 20.3125C8.55598 20.3125 8.9693 20.4837 9.27405 20.7885C9.57879 21.0932 9.75 21.5065 9.75 21.9375ZM18.6875 20.3125C18.3661 20.3125 18.0519 20.4078 17.7847 20.5864C17.5175 20.7649 17.3092 21.0187 17.1862 21.3156C17.0632 21.6126 17.031 21.9393 17.0937 22.2545C17.1564 22.5697 17.3112 22.8593 17.5385 23.0865C17.7657 23.3138 18.0553 23.4686 18.3705 23.5313C18.6857 23.594 19.0124 23.5618 19.3094 23.4388C19.6063 23.3158 19.8601 23.1075 20.0386 22.8403C20.2172 22.5731 20.3125 22.2589 20.3125 21.9375C20.3125 21.5065 20.1413 21.0932 19.8365 20.7885C19.5318 20.4837 19.1185 20.3125 18.6875 20.3125ZM23.527 7.55117L20.6294 16.967C20.4776 17.4662 20.169 17.9031 19.7493 18.213C19.3296 18.5229 18.8212 18.6893 18.2995 18.6875H8.53836C8.00919 18.6855 7.49491 18.5122 7.07252 18.1934C6.65013 17.8746 6.34236 17.4276 6.19531 16.9193L2.52078 4.0625H0.8125C0.597012 4.0625 0.390349 3.9769 0.237976 3.82452C0.0856024 3.67215 0 3.46549 0 3.25C0 3.03451 0.0856024 2.82785 0.237976 2.67548C0.390349 2.5231 0.597012 2.4375 0.8125 2.4375H2.52078C2.87362 2.43867 3.21659 2.55408 3.49835 2.76646C3.78012 2.97884 3.98553 3.27676 4.08383 3.61562L4.9075 6.5H22.75C22.8771 6.49995 23.0025 6.52975 23.1161 6.58699C23.2296 6.64422 23.3281 6.72731 23.4037 6.82956C23.4793 6.93181 23.5298 7.05036 23.5512 7.1757C23.5726 7.30103 23.5643 7.42963 23.527 7.55117ZM21.6501 8.125H5.37164L7.75734 16.4734C7.80588 16.6431 7.90835 16.7924 8.04926 16.8987C8.19018 17.005 8.36186 17.0625 8.53836 17.0625H18.2995C18.4734 17.0626 18.6427 17.0069 18.7825 16.9036C18.9224 16.8003 19.0254 16.6549 19.0765 16.4887L21.6501 8.125Z" fill="#C3C5C8"/>
</svg>
