<svg width="335" height="50" viewBox="0 0 335 50" fill="none" xmlns="http://www.w3.org/2000/svg">
<line x1="-8.74228e-08" y1="38" x2="335" y2="38" stroke="#E6EAEF" stroke-width="2"/>
<line x1="8.74228e-08" y1="38" x2="231" y2="38" stroke="#1DBF73" stroke-width="2"/>
<circle cx="81.5" cy="37.5" r="12.5" fill="#1DBF73"/>
<path d="M85.3624 33.8623L79.625 39.5997L77.0127 36.9874L77.0127 36.9873C76.7295 36.7042 76.2705 36.7042 75.9873 36.9873L76.0581 37.0581L75.9873 36.9873C75.7042 37.2705 75.7042 37.7295 75.9873 38.0126L78.6704 40.6957L78.7411 40.625L78.6704 40.6957C79.1976 41.2229 80.0524 41.223 80.5796 40.6957C80.5796 40.6957 80.5796 40.6957 80.5796 40.6957L86.3876 34.8877L86.3169 34.8169L86.3877 34.8877C86.6708 34.6045 86.6708 34.1455 86.3877 33.8623L86.3169 33.9331L86.3876 33.8623C86.1045 33.5792 85.6455 33.5792 85.3624 33.8623Z" fill="white" stroke="white" stroke-width="0.2"/>
<path d="M56.3292 11V2.6H59.7852C60.5292 2.6 61.1652 2.72 61.6932 2.96C62.2292 3.2 62.6412 3.544 62.9292 3.992C63.2172 4.44 63.3612 4.972 63.3612 5.588C63.3612 6.204 63.2172 6.736 62.9292 7.184C62.6412 7.624 62.2292 7.964 61.6932 8.204C61.1652 8.436 60.5292 8.552 59.7852 8.552H57.1932L57.8892 7.844V11H56.3292ZM61.8252 11L59.7012 7.952H61.3692L63.5052 11H61.8252ZM57.8892 8.012L57.1932 7.268H59.7132C60.4012 7.268 60.9172 7.12 61.2612 6.824C61.6132 6.528 61.7892 6.116 61.7892 5.588C61.7892 5.052 61.6132 4.64 61.2612 4.352C60.9172 4.064 60.4012 3.92 59.7132 3.92H57.1932L57.8892 3.152V8.012ZM67.9745 11.084C67.2625 11.084 66.6385 10.944 66.1025 10.664C65.5745 10.376 65.1625 9.984 64.8665 9.488C64.5785 8.992 64.4345 8.428 64.4345 7.796C64.4345 7.156 64.5745 6.592 64.8545 6.104C65.1425 5.608 65.5345 5.22 66.0305 4.94C66.5345 4.66 67.1065 4.52 67.7465 4.52C68.3705 4.52 68.9265 4.656 69.4145 4.928C69.9025 5.2 70.2865 5.584 70.5665 6.08C70.8465 6.576 70.9865 7.16 70.9865 7.832C70.9865 7.896 70.9825 7.968 70.9745 8.048C70.9745 8.128 70.9705 8.204 70.9625 8.276H65.6225V7.28H70.1705L69.5825 7.592C69.5905 7.224 69.5145 6.9 69.3545 6.62C69.1945 6.34 68.9745 6.12 68.6945 5.96C68.4225 5.8 68.1065 5.72 67.7465 5.72C67.3785 5.72 67.0545 5.8 66.7745 5.96C66.5025 6.12 66.2865 6.344 66.1265 6.632C65.9745 6.912 65.8985 7.244 65.8985 7.628V7.868C65.8985 8.252 65.9865 8.592 66.1625 8.888C66.3385 9.184 66.5865 9.412 66.9065 9.572C67.2265 9.732 67.5945 9.812 68.0105 9.812C68.3705 9.812 68.6945 9.756 68.9825 9.644C69.2705 9.532 69.5265 9.356 69.7505 9.116L70.5545 10.04C70.2665 10.376 69.9025 10.636 69.4625 10.82C69.0305 10.996 68.5345 11.084 67.9745 11.084ZM75.3314 13.412C74.7394 13.412 74.1594 13.332 73.5914 13.172C73.0314 13.02 72.5714 12.796 72.2114 12.5L72.8834 11.372C73.1634 11.604 73.5154 11.788 73.9394 11.924C74.3714 12.068 74.8074 12.14 75.2474 12.14C75.9514 12.14 76.4674 11.976 76.7954 11.648C77.1234 11.328 77.2874 10.844 77.2874 10.196V9.056L77.4074 7.604L77.3594 6.152V4.592H78.7874V10.028C78.7874 11.188 78.4914 12.04 77.8994 12.584C77.3074 13.136 76.4514 13.412 75.3314 13.412ZM75.1394 10.712C74.5314 10.712 73.9794 10.584 73.4834 10.328C72.9954 10.064 72.6074 9.7 72.3194 9.236C72.0394 8.772 71.8994 8.228 71.8994 7.604C71.8994 6.988 72.0394 6.448 72.3194 5.984C72.6074 5.52 72.9954 5.16 73.4834 4.904C73.9794 4.648 74.5314 4.52 75.1394 4.52C75.6834 4.52 76.1714 4.628 76.6034 4.844C77.0354 5.06 77.3794 5.396 77.6354 5.852C77.8994 6.308 78.0314 6.892 78.0314 7.604C78.0314 8.316 77.8994 8.904 77.6354 9.368C77.3794 9.824 77.0354 10.164 76.6034 10.388C76.1714 10.604 75.6834 10.712 75.1394 10.712ZM75.3674 9.44C75.7434 9.44 76.0794 9.364 76.3754 9.212C76.6714 9.052 76.8994 8.836 77.0594 8.564C77.2274 8.284 77.3114 7.964 77.3114 7.604C77.3114 7.244 77.2274 6.928 77.0594 6.656C76.8994 6.376 76.6714 6.164 76.3754 6.02C76.0794 5.868 75.7434 5.792 75.3674 5.792C74.9914 5.792 74.6514 5.868 74.3474 6.02C74.0514 6.164 73.8194 6.376 73.6514 6.656C73.4914 6.928 73.4114 7.244 73.4114 7.604C73.4114 7.964 73.4914 8.284 73.6514 8.564C73.8194 8.836 74.0514 9.052 74.3474 9.212C74.6514 9.364 74.9914 9.44 75.3674 9.44ZM80.7594 11V4.592H82.2594V11H80.7594ZM81.5154 3.536C81.2354 3.536 81.0034 3.448 80.8194 3.272C80.6434 3.096 80.5554 2.884 80.5554 2.636C80.5554 2.38 80.6434 2.168 80.8194 2C81.0034 1.824 81.2354 1.736 81.5154 1.736C81.7954 1.736 82.0234 1.82 82.1994 1.988C82.3834 2.148 82.4754 2.352 82.4754 2.6C82.4754 2.864 82.3874 3.088 82.2114 3.272C82.0354 3.448 81.8034 3.536 81.5154 3.536ZM86.2081 11.084C85.6721 11.084 85.1561 11.016 84.6601 10.88C84.1721 10.736 83.7841 10.564 83.4961 10.364L84.0721 9.224C84.3601 9.408 84.7041 9.56 85.1041 9.68C85.5041 9.8 85.9041 9.86 86.3041 9.86C86.7761 9.86 87.1161 9.796 87.3241 9.668C87.5401 9.54 87.6481 9.368 87.6481 9.152C87.6481 8.976 87.5761 8.844 87.4321 8.756C87.2881 8.66 87.1001 8.588 86.8681 8.54C86.6361 8.492 86.3761 8.448 86.0881 8.408C85.8081 8.368 85.5241 8.316 85.2361 8.252C84.9561 8.18 84.7001 8.08 84.4681 7.952C84.2361 7.816 84.0481 7.636 83.9041 7.412C83.7601 7.188 83.6881 6.892 83.6881 6.524C83.6881 6.116 83.8041 5.764 84.0361 5.468C84.2681 5.164 84.5921 4.932 85.0081 4.772C85.4321 4.604 85.9321 4.52 86.5081 4.52C86.9401 4.52 87.3761 4.568 87.8161 4.664C88.2561 4.76 88.6201 4.896 88.9081 5.072L88.3321 6.212C88.0281 6.028 87.7201 5.904 87.4081 5.84C87.1041 5.768 86.8001 5.732 86.4961 5.732C86.0401 5.732 85.7001 5.8 85.4761 5.936C85.2601 6.072 85.1521 6.244 85.1521 6.452C85.1521 6.644 85.2241 6.788 85.3681 6.884C85.5121 6.98 85.7001 7.056 85.9321 7.112C86.1641 7.168 86.4201 7.216 86.7001 7.256C86.9881 7.288 87.2721 7.34 87.5521 7.412C87.8321 7.484 88.0881 7.584 88.3201 7.712C88.5601 7.832 88.7521 8.004 88.8961 8.228C89.0401 8.452 89.1121 8.744 89.1121 9.104C89.1121 9.504 88.9921 9.852 88.7521 10.148C88.5201 10.444 88.1881 10.676 87.7561 10.844C87.3241 11.004 86.8081 11.084 86.2081 11.084ZM92.8159 11.084C92.1119 11.084 91.5679 10.904 91.1839 10.544C90.7999 10.176 90.6079 9.636 90.6079 8.924V3.176H92.1079V8.888C92.1079 9.192 92.1839 9.428 92.3359 9.596C92.4959 9.764 92.7159 9.848 92.9959 9.848C93.3319 9.848 93.6119 9.76 93.8359 9.584L94.2559 10.652C94.0799 10.796 93.8639 10.904 93.6079 10.976C93.3519 11.048 93.0879 11.084 92.8159 11.084ZM89.5519 5.84V4.64H93.8239V5.84H89.5519ZM98.2909 11.084C97.5789 11.084 96.9549 10.944 96.4189 10.664C95.8909 10.376 95.4789 9.984 95.1829 9.488C94.8949 8.992 94.7509 8.428 94.7509 7.796C94.7509 7.156 94.8909 6.592 95.1709 6.104C95.4589 5.608 95.8509 5.22 96.3469 4.94C96.8509 4.66 97.4229 4.52 98.0629 4.52C98.6869 4.52 99.2429 4.656 99.7309 4.928C100.219 5.2 100.603 5.584 100.883 6.08C101.163 6.576 101.303 7.16 101.303 7.832C101.303 7.896 101.299 7.968 101.291 8.048C101.291 8.128 101.287 8.204 101.279 8.276H95.9389V7.28H100.487L99.8989 7.592C99.9069 7.224 99.8309 6.9 99.6709 6.62C99.5109 6.34 99.2909 6.12 99.0109 5.96C98.7389 5.8 98.4229 5.72 98.0629 5.72C97.6949 5.72 97.3709 5.8 97.0909 5.96C96.8189 6.12 96.6029 6.344 96.4429 6.632C96.2909 6.912 96.2149 7.244 96.2149 7.628V7.868C96.2149 8.252 96.3029 8.592 96.4789 8.888C96.6549 9.184 96.9029 9.412 97.2229 9.572C97.5429 9.732 97.9109 9.812 98.3269 9.812C98.6869 9.812 99.0109 9.756 99.2989 9.644C99.5869 9.532 99.8429 9.356 100.067 9.116L100.871 10.04C100.583 10.376 100.219 10.636 99.7789 10.82C99.3469 10.996 98.8509 11.084 98.2909 11.084ZM102.744 11V4.592H104.172V6.356L104.004 5.84C104.196 5.408 104.496 5.08 104.904 4.856C105.32 4.632 105.836 4.52 106.452 4.52V5.948C106.388 5.932 106.328 5.924 106.272 5.924C106.216 5.916 106.16 5.912 106.104 5.912C105.536 5.912 105.084 6.08 104.748 6.416C104.412 6.744 104.244 7.236 104.244 7.892V11H102.744Z" fill="#1DBF73"/>
<circle cx="234.5" cy="37.5" r="11.5" fill="white" stroke="#1DBF73" stroke-width="2"/>
<path d="M231.42 42V40.956L234.756 37.788C235.036 37.524 235.244 37.292 235.38 37.092C235.516 36.892 235.604 36.708 235.644 36.54C235.692 36.364 235.716 36.2 235.716 36.048C235.716 35.664 235.584 35.368 235.32 35.16C235.056 34.944 234.668 34.836 234.156 34.836C233.748 34.836 233.376 34.908 233.04 35.052C232.712 35.196 232.428 35.416 232.188 35.712L231.096 34.872C231.424 34.432 231.864 34.092 232.416 33.852C232.976 33.604 233.6 33.48 234.288 33.48C234.896 33.48 235.424 33.58 235.872 33.78C236.328 33.972 236.676 34.248 236.916 34.608C237.164 34.968 237.288 35.396 237.288 35.892C237.288 36.164 237.252 36.436 237.18 36.708C237.108 36.972 236.972 37.252 236.772 37.548C236.572 37.844 236.28 38.176 235.896 38.544L233.028 41.268L232.704 40.68H237.612V42H231.42Z" fill="#1DBF73"/>
<path d="M192.399 11.12C191.759 11.12 191.163 11.016 190.611 10.808C190.067 10.592 189.591 10.292 189.183 9.908C188.783 9.516 188.471 9.056 188.247 8.528C188.023 8 187.911 7.424 187.911 6.8C187.911 6.176 188.023 5.6 188.247 5.072C188.471 4.544 188.787 4.088 189.195 3.704C189.603 3.312 190.079 3.012 190.623 2.804C191.167 2.588 191.763 2.48 192.411 2.48C193.099 2.48 193.727 2.6 194.295 2.84C194.863 3.072 195.343 3.42 195.735 3.884L194.727 4.832C194.423 4.504 194.083 4.26 193.707 4.1C193.331 3.932 192.923 3.848 192.483 3.848C192.043 3.848 191.639 3.92 191.271 4.064C190.911 4.208 190.595 4.412 190.323 4.676C190.059 4.94 189.851 5.252 189.699 5.612C189.555 5.972 189.483 6.368 189.483 6.8C189.483 7.232 189.555 7.628 189.699 7.988C189.851 8.348 190.059 8.66 190.323 8.924C190.595 9.188 190.911 9.392 191.271 9.536C191.639 9.68 192.043 9.752 192.483 9.752C192.923 9.752 193.331 9.672 193.707 9.512C194.083 9.344 194.423 9.092 194.727 8.756L195.735 9.716C195.343 10.172 194.863 10.52 194.295 10.76C193.727 11 193.095 11.12 192.399 11.12ZM199.719 11.084C199.063 11.084 198.479 10.944 197.967 10.664C197.455 10.376 197.051 9.984 196.755 9.488C196.459 8.992 196.311 8.428 196.311 7.796C196.311 7.156 196.459 6.592 196.755 6.104C197.051 5.608 197.455 5.22 197.967 4.94C198.479 4.66 199.063 4.52 199.719 4.52C200.383 4.52 200.971 4.66 201.483 4.94C202.003 5.22 202.407 5.604 202.695 6.092C202.991 6.58 203.139 7.148 203.139 7.796C203.139 8.428 202.991 8.992 202.695 9.488C202.407 9.984 202.003 10.376 201.483 10.664C200.971 10.944 200.383 11.084 199.719 11.084ZM199.719 9.8C200.087 9.8 200.415 9.72 200.703 9.56C200.991 9.4 201.215 9.168 201.375 8.864C201.543 8.56 201.627 8.204 201.627 7.796C201.627 7.38 201.543 7.024 201.375 6.728C201.215 6.424 200.991 6.192 200.703 6.032C200.415 5.872 200.091 5.792 199.731 5.792C199.363 5.792 199.035 5.872 198.747 6.032C198.467 6.192 198.243 6.424 198.075 6.728C197.907 7.024 197.823 7.38 197.823 7.796C197.823 8.204 197.907 8.56 198.075 8.864C198.243 9.168 198.467 9.4 198.747 9.56C199.035 9.72 199.359 9.8 199.719 9.8ZM212.662 4.52C213.174 4.52 213.626 4.62 214.018 4.82C214.418 5.02 214.73 5.328 214.954 5.744C215.178 6.152 215.29 6.68 215.29 7.328V11H213.79V7.52C213.79 6.952 213.666 6.528 213.418 6.248C213.17 5.968 212.814 5.828 212.35 5.828C212.022 5.828 211.73 5.9 211.474 6.044C211.226 6.188 211.03 6.4 210.886 6.68C210.75 6.96 210.682 7.316 210.682 7.748V11H209.182V7.52C209.182 6.952 209.058 6.528 208.81 6.248C208.562 5.968 208.206 5.828 207.742 5.828C207.414 5.828 207.122 5.9 206.866 6.044C206.618 6.188 206.422 6.4 206.278 6.68C206.142 6.96 206.074 7.316 206.074 7.748V11H204.574V4.592H206.002V6.296L205.75 5.792C205.966 5.376 206.278 5.06 206.686 4.844C207.102 4.628 207.574 4.52 208.102 4.52C208.702 4.52 209.222 4.668 209.662 4.964C210.11 5.26 210.406 5.708 210.55 6.308L209.962 6.104C210.17 5.624 210.514 5.24 210.994 4.952C211.474 4.664 212.03 4.52 212.662 4.52ZM220.759 11.084C220.239 11.084 219.763 10.964 219.331 10.724C218.907 10.484 218.567 10.124 218.311 9.644C218.063 9.156 217.939 8.54 217.939 7.796C217.939 7.044 218.059 6.428 218.299 5.948C218.547 5.468 218.883 5.112 219.307 4.88C219.731 4.64 220.215 4.52 220.759 4.52C221.391 4.52 221.947 4.656 222.427 4.928C222.915 5.2 223.299 5.58 223.579 6.068C223.867 6.556 224.011 7.132 224.011 7.796C224.011 8.46 223.867 9.04 223.579 9.536C223.299 10.024 222.915 10.404 222.427 10.676C221.947 10.948 221.391 11.084 220.759 11.084ZM217.207 13.328V4.592H218.635V6.104L218.587 7.808L218.707 9.512V13.328H217.207ZM220.591 9.8C220.951 9.8 221.271 9.72 221.551 9.56C221.839 9.4 222.067 9.168 222.235 8.864C222.403 8.56 222.487 8.204 222.487 7.796C222.487 7.38 222.403 7.024 222.235 6.728C222.067 6.424 221.839 6.192 221.551 6.032C221.271 5.872 220.951 5.792 220.591 5.792C220.231 5.792 219.907 5.872 219.619 6.032C219.331 6.192 219.103 6.424 218.935 6.728C218.767 7.024 218.683 7.38 218.683 7.796C218.683 8.204 218.767 8.56 218.935 8.864C219.103 9.168 219.331 9.4 219.619 9.56C219.907 9.72 220.231 9.8 220.591 9.8ZM225.433 11V2.096H226.933V11H225.433ZM231.914 11.084C231.202 11.084 230.578 10.944 230.042 10.664C229.514 10.376 229.102 9.984 228.806 9.488C228.518 8.992 228.374 8.428 228.374 7.796C228.374 7.156 228.514 6.592 228.794 6.104C229.082 5.608 229.474 5.22 229.97 4.94C230.474 4.66 231.046 4.52 231.686 4.52C232.31 4.52 232.866 4.656 233.354 4.928C233.842 5.2 234.226 5.584 234.506 6.08C234.786 6.576 234.926 7.16 234.926 7.832C234.926 7.896 234.922 7.968 234.914 8.048C234.914 8.128 234.91 8.204 234.902 8.276H229.562V7.28H234.11L233.522 7.592C233.53 7.224 233.454 6.9 233.294 6.62C233.134 6.34 232.914 6.12 232.634 5.96C232.362 5.8 232.046 5.72 231.686 5.72C231.318 5.72 230.994 5.8 230.714 5.96C230.442 6.12 230.226 6.344 230.066 6.632C229.914 6.912 229.838 7.244 229.838 7.628V7.868C229.838 8.252 229.926 8.592 230.102 8.888C230.278 9.184 230.526 9.412 230.846 9.572C231.166 9.732 231.534 9.812 231.95 9.812C232.31 9.812 232.634 9.756 232.922 9.644C233.21 9.532 233.466 9.356 233.69 9.116L234.494 10.04C234.206 10.376 233.842 10.636 233.402 10.82C232.97 10.996 232.474 11.084 231.914 11.084ZM238.779 11.084C238.075 11.084 237.531 10.904 237.147 10.544C236.763 10.176 236.571 9.636 236.571 8.924V3.176H238.071V8.888C238.071 9.192 238.147 9.428 238.299 9.596C238.459 9.764 238.679 9.848 238.959 9.848C239.295 9.848 239.575 9.76 239.799 9.584L240.219 10.652C240.043 10.796 239.827 10.904 239.571 10.976C239.315 11.048 239.051 11.084 238.779 11.084ZM235.515 5.84V4.64H239.787V5.84H235.515ZM244.254 11.084C243.542 11.084 242.918 10.944 242.382 10.664C241.854 10.376 241.442 9.984 241.146 9.488C240.858 8.992 240.714 8.428 240.714 7.796C240.714 7.156 240.854 6.592 241.134 6.104C241.422 5.608 241.814 5.22 242.31 4.94C242.814 4.66 243.386 4.52 244.026 4.52C244.65 4.52 245.206 4.656 245.694 4.928C246.182 5.2 246.566 5.584 246.846 6.08C247.126 6.576 247.266 7.16 247.266 7.832C247.266 7.896 247.262 7.968 247.254 8.048C247.254 8.128 247.25 8.204 247.242 8.276H241.902V7.28H246.45L245.862 7.592C245.87 7.224 245.794 6.9 245.634 6.62C245.474 6.34 245.254 6.12 244.974 5.96C244.702 5.8 244.386 5.72 244.026 5.72C243.658 5.72 243.334 5.8 243.054 5.96C242.782 6.12 242.566 6.344 242.406 6.632C242.254 6.912 242.178 7.244 242.178 7.628V7.868C242.178 8.252 242.266 8.592 242.442 8.888C242.618 9.184 242.866 9.412 243.186 9.572C243.506 9.732 243.874 9.812 244.29 9.812C244.65 9.812 244.974 9.756 245.262 9.644C245.55 9.532 245.806 9.356 246.03 9.116L246.834 10.04C246.546 10.376 246.182 10.636 245.742 10.82C245.31 10.996 244.814 11.084 244.254 11.084ZM252.167 11V2.6H255.839C256.751 2.6 257.551 2.776 258.239 3.128C258.927 3.48 259.463 3.968 259.847 4.592C260.231 5.216 260.423 5.952 260.423 6.8C260.423 7.64 260.231 8.376 259.847 9.008C259.463 9.632 258.927 10.12 258.239 10.472C257.551 10.824 256.751 11 255.839 11H252.167ZM253.727 9.68H255.767C256.399 9.68 256.943 9.56 257.399 9.32C257.863 9.08 258.219 8.744 258.467 8.312C258.723 7.88 258.851 7.376 258.851 6.8C258.851 6.216 258.723 5.712 258.467 5.288C258.219 4.856 257.863 4.52 257.399 4.28C256.943 4.04 256.399 3.92 255.767 3.92H253.727V9.68ZM265.885 11V9.704L265.801 9.428V7.16C265.801 6.72 265.669 6.38 265.405 6.14C265.141 5.892 264.741 5.768 264.205 5.768C263.845 5.768 263.489 5.824 263.137 5.936C262.793 6.048 262.501 6.204 262.261 6.404L261.673 5.312C262.017 5.048 262.425 4.852 262.897 4.724C263.377 4.588 263.873 4.52 264.385 4.52C265.313 4.52 266.029 4.744 266.533 5.192C267.045 5.632 267.301 6.316 267.301 7.244V11H265.885ZM263.869 11.084C263.389 11.084 262.969 11.004 262.609 10.844C262.249 10.676 261.969 10.448 261.769 10.16C261.577 9.864 261.481 9.532 261.481 9.164C261.481 8.804 261.565 8.48 261.733 8.192C261.909 7.904 262.193 7.676 262.585 7.508C262.977 7.34 263.497 7.256 264.145 7.256H266.005V8.252H264.253C263.741 8.252 263.397 8.336 263.221 8.504C263.045 8.664 262.957 8.864 262.957 9.104C262.957 9.376 263.065 9.592 263.281 9.752C263.497 9.912 263.797 9.992 264.181 9.992C264.549 9.992 264.877 9.908 265.165 9.74C265.461 9.572 265.673 9.324 265.801 8.996L266.053 9.896C265.909 10.272 265.649 10.564 265.273 10.772C264.905 10.98 264.437 11.084 263.869 11.084ZM271.638 11.084C270.934 11.084 270.39 10.904 270.006 10.544C269.622 10.176 269.43 9.636 269.43 8.924V3.176H270.93V8.888C270.93 9.192 271.006 9.428 271.158 9.596C271.318 9.764 271.538 9.848 271.818 9.848C272.154 9.848 272.434 9.76 272.658 9.584L273.078 10.652C272.902 10.796 272.686 10.904 272.43 10.976C272.174 11.048 271.91 11.084 271.638 11.084ZM268.374 5.84V4.64H272.646V5.84H268.374ZM278.26 11V9.704L278.176 9.428V7.16C278.176 6.72 278.044 6.38 277.78 6.14C277.516 5.892 277.116 5.768 276.58 5.768C276.22 5.768 275.864 5.824 275.512 5.936C275.168 6.048 274.876 6.204 274.636 6.404L274.048 5.312C274.392 5.048 274.8 4.852 275.272 4.724C275.752 4.588 276.248 4.52 276.76 4.52C277.688 4.52 278.404 4.744 278.908 5.192C279.42 5.632 279.676 6.316 279.676 7.244V11H278.26ZM276.244 11.084C275.764 11.084 275.344 11.004 274.984 10.844C274.624 10.676 274.344 10.448 274.144 10.16C273.952 9.864 273.856 9.532 273.856 9.164C273.856 8.804 273.94 8.48 274.108 8.192C274.284 7.904 274.568 7.676 274.96 7.508C275.352 7.34 275.872 7.256 276.52 7.256H278.38V8.252H276.628C276.116 8.252 275.772 8.336 275.596 8.504C275.42 8.664 275.332 8.864 275.332 9.104C275.332 9.376 275.44 9.592 275.656 9.752C275.872 9.912 276.172 9.992 276.556 9.992C276.924 9.992 277.252 9.908 277.54 9.74C277.836 9.572 278.048 9.324 278.176 8.996L278.428 9.896C278.284 10.272 278.024 10.564 277.648 10.772C277.28 10.98 276.812 11.084 276.244 11.084Z" fill="#1DBF73"/>
</svg>
