<svg width="335" height="50" viewBox="0 0 335 50" fill="none" xmlns="http://www.w3.org/2000/svg">
<line x1="-8.74228e-08" y1="38" x2="335" y2="38" stroke="#E6EAEF" stroke-width="2"/>
<line x1="8.74228e-08" y1="38" x2="80" y2="38" stroke="#1DBF73" stroke-width="2"/>
<circle cx="81.5" cy="37.5" r="11.5" fill="white" stroke="#1DBF73" stroke-width="2"/>
<path d="M80.872 42V34.2L81.556 34.908H79.096V33.6H82.432V42H80.872Z" fill="#1DBF73"/>
<path d="M56.3292 11V2.6H59.7852C60.5292 2.6 61.1652 2.72 61.6932 2.96C62.2292 3.2 62.6412 3.544 62.9292 3.992C63.2172 4.44 63.3612 4.972 63.3612 5.588C63.3612 6.204 63.2172 6.736 62.9292 7.184C62.6412 7.624 62.2292 7.964 61.6932 8.204C61.1652 8.436 60.5292 8.552 59.7852 8.552H57.1932L57.8892 7.844V11H56.3292ZM61.8252 11L59.7012 7.952H61.3692L63.5052 11H61.8252ZM57.8892 8.012L57.1932 7.268H59.7132C60.4012 7.268 60.9172 7.12 61.2612 6.824C61.6132 6.528 61.7892 6.116 61.7892 5.588C61.7892 5.052 61.6132 4.64 61.2612 4.352C60.9172 4.064 60.4012 3.92 59.7132 3.92H57.1932L57.8892 3.152V8.012ZM67.9745 11.084C67.2625 11.084 66.6385 10.944 66.1025 10.664C65.5745 10.376 65.1625 9.984 64.8665 9.488C64.5785 8.992 64.4345 8.428 64.4345 7.796C64.4345 7.156 64.5745 6.592 64.8545 6.104C65.1425 5.608 65.5345 5.22 66.0305 4.94C66.5345 4.66 67.1065 4.52 67.7465 4.52C68.3705 4.52 68.9265 4.656 69.4145 4.928C69.9025 5.2 70.2865 5.584 70.5665 6.08C70.8465 6.576 70.9865 7.16 70.9865 7.832C70.9865 7.896 70.9825 7.968 70.9745 8.048C70.9745 8.128 70.9705 8.204 70.9625 8.276H65.6225V7.28H70.1705L69.5825 7.592C69.5905 7.224 69.5145 6.9 69.3545 6.62C69.1945 6.34 68.9745 6.12 68.6945 5.96C68.4225 5.8 68.1065 5.72 67.7465 5.72C67.3785 5.72 67.0545 5.8 66.7745 5.96C66.5025 6.12 66.2865 6.344 66.1265 6.632C65.9745 6.912 65.8985 7.244 65.8985 7.628V7.868C65.8985 8.252 65.9865 8.592 66.1625 8.888C66.3385 9.184 66.5865 9.412 66.9065 9.572C67.2265 9.732 67.5945 9.812 68.0105 9.812C68.3705 9.812 68.6945 9.756 68.9825 9.644C69.2705 9.532 69.5265 9.356 69.7505 9.116L70.5545 10.04C70.2665 10.376 69.9025 10.636 69.4625 10.82C69.0305 10.996 68.5345 11.084 67.9745 11.084ZM75.3314 13.412C74.7394 13.412 74.1594 13.332 73.5914 13.172C73.0314 13.02 72.5714 12.796 72.2114 12.5L72.8834 11.372C73.1634 11.604 73.5154 11.788 73.9394 11.924C74.3714 12.068 74.8074 12.14 75.2474 12.14C75.9514 12.14 76.4674 11.976 76.7954 11.648C77.1234 11.328 77.2874 10.844 77.2874 10.196V9.056L77.4074 7.604L77.3594 6.152V4.592H78.7874V10.028C78.7874 11.188 78.4914 12.04 77.8994 12.584C77.3074 13.136 76.4514 13.412 75.3314 13.412ZM75.1394 10.712C74.5314 10.712 73.9794 10.584 73.4834 10.328C72.9954 10.064 72.6074 9.7 72.3194 9.236C72.0394 8.772 71.8994 8.228 71.8994 7.604C71.8994 6.988 72.0394 6.448 72.3194 5.984C72.6074 5.52 72.9954 5.16 73.4834 4.904C73.9794 4.648 74.5314 4.52 75.1394 4.52C75.6834 4.52 76.1714 4.628 76.6034 4.844C77.0354 5.06 77.3794 5.396 77.6354 5.852C77.8994 6.308 78.0314 6.892 78.0314 7.604C78.0314 8.316 77.8994 8.904 77.6354 9.368C77.3794 9.824 77.0354 10.164 76.6034 10.388C76.1714 10.604 75.6834 10.712 75.1394 10.712ZM75.3674 9.44C75.7434 9.44 76.0794 9.364 76.3754 9.212C76.6714 9.052 76.8994 8.836 77.0594 8.564C77.2274 8.284 77.3114 7.964 77.3114 7.604C77.3114 7.244 77.2274 6.928 77.0594 6.656C76.8994 6.376 76.6714 6.164 76.3754 6.02C76.0794 5.868 75.7434 5.792 75.3674 5.792C74.9914 5.792 74.6514 5.868 74.3474 6.02C74.0514 6.164 73.8194 6.376 73.6514 6.656C73.4914 6.928 73.4114 7.244 73.4114 7.604C73.4114 7.964 73.4914 8.284 73.6514 8.564C73.8194 8.836 74.0514 9.052 74.3474 9.212C74.6514 9.364 74.9914 9.44 75.3674 9.44ZM80.7594 11V4.592H82.2594V11H80.7594ZM81.5154 3.536C81.2354 3.536 81.0034 3.448 80.8194 3.272C80.6434 3.096 80.5554 2.884 80.5554 2.636C80.5554 2.38 80.6434 2.168 80.8194 2C81.0034 1.824 81.2354 1.736 81.5154 1.736C81.7954 1.736 82.0234 1.82 82.1994 1.988C82.3834 2.148 82.4754 2.352 82.4754 2.6C82.4754 2.864 82.3874 3.088 82.2114 3.272C82.0354 3.448 81.8034 3.536 81.5154 3.536ZM86.2081 11.084C85.6721 11.084 85.1561 11.016 84.6601 10.88C84.1721 10.736 83.7841 10.564 83.4961 10.364L84.0721 9.224C84.3601 9.408 84.7041 9.56 85.1041 9.68C85.5041 9.8 85.9041 9.86 86.3041 9.86C86.7761 9.86 87.1161 9.796 87.3241 9.668C87.5401 9.54 87.6481 9.368 87.6481 9.152C87.6481 8.976 87.5761 8.844 87.4321 8.756C87.2881 8.66 87.1001 8.588 86.8681 8.54C86.6361 8.492 86.3761 8.448 86.0881 8.408C85.8081 8.368 85.5241 8.316 85.2361 8.252C84.9561 8.18 84.7001 8.08 84.4681 7.952C84.2361 7.816 84.0481 7.636 83.9041 7.412C83.7601 7.188 83.6881 6.892 83.6881 6.524C83.6881 6.116 83.8041 5.764 84.0361 5.468C84.2681 5.164 84.5921 4.932 85.0081 4.772C85.4321 4.604 85.9321 4.52 86.5081 4.52C86.9401 4.52 87.3761 4.568 87.8161 4.664C88.2561 4.76 88.6201 4.896 88.9081 5.072L88.3321 6.212C88.0281 6.028 87.7201 5.904 87.4081 5.84C87.1041 5.768 86.8001 5.732 86.4961 5.732C86.0401 5.732 85.7001 5.8 85.4761 5.936C85.2601 6.072 85.1521 6.244 85.1521 6.452C85.1521 6.644 85.2241 6.788 85.3681 6.884C85.5121 6.98 85.7001 7.056 85.9321 7.112C86.1641 7.168 86.4201 7.216 86.7001 7.256C86.9881 7.288 87.2721 7.34 87.5521 7.412C87.8321 7.484 88.0881 7.584 88.3201 7.712C88.5601 7.832 88.7521 8.004 88.8961 8.228C89.0401 8.452 89.1121 8.744 89.1121 9.104C89.1121 9.504 88.9921 9.852 88.7521 10.148C88.5201 10.444 88.1881 10.676 87.7561 10.844C87.3241 11.004 86.8081 11.084 86.2081 11.084ZM92.8159 11.084C92.1119 11.084 91.5679 10.904 91.1839 10.544C90.7999 10.176 90.6079 9.636 90.6079 8.924V3.176H92.1079V8.888C92.1079 9.192 92.1839 9.428 92.3359 9.596C92.4959 9.764 92.7159 9.848 92.9959 9.848C93.3319 9.848 93.6119 9.76 93.8359 9.584L94.2559 10.652C94.0799 10.796 93.8639 10.904 93.6079 10.976C93.3519 11.048 93.0879 11.084 92.8159 11.084ZM89.5519 5.84V4.64H93.8239V5.84H89.5519ZM98.2909 11.084C97.5789 11.084 96.9549 10.944 96.4189 10.664C95.8909 10.376 95.4789 9.984 95.1829 9.488C94.8949 8.992 94.7509 8.428 94.7509 7.796C94.7509 7.156 94.8909 6.592 95.1709 6.104C95.4589 5.608 95.8509 5.22 96.3469 4.94C96.8509 4.66 97.4229 4.52 98.0629 4.52C98.6869 4.52 99.2429 4.656 99.7309 4.928C100.219 5.2 100.603 5.584 100.883 6.08C101.163 6.576 101.303 7.16 101.303 7.832C101.303 7.896 101.299 7.968 101.291 8.048C101.291 8.128 101.287 8.204 101.279 8.276H95.9389V7.28H100.487L99.8989 7.592C99.9069 7.224 99.8309 6.9 99.6709 6.62C99.5109 6.34 99.2909 6.12 99.0109 5.96C98.7389 5.8 98.4229 5.72 98.0629 5.72C97.6949 5.72 97.3709 5.8 97.0909 5.96C96.8189 6.12 96.6029 6.344 96.4429 6.632C96.2909 6.912 96.2149 7.244 96.2149 7.628V7.868C96.2149 8.252 96.3029 8.592 96.4789 8.888C96.6549 9.184 96.9029 9.412 97.2229 9.572C97.5429 9.732 97.9109 9.812 98.3269 9.812C98.6869 9.812 99.0109 9.756 99.2989 9.644C99.5869 9.532 99.8429 9.356 100.067 9.116L100.871 10.04C100.583 10.376 100.219 10.636 99.7789 10.82C99.3469 10.996 98.8509 11.084 98.2909 11.084ZM102.744 11V4.592H104.172V6.356L104.004 5.84C104.196 5.408 104.496 5.08 104.904 4.856C105.32 4.632 105.836 4.52 106.452 4.52V5.948C106.388 5.932 106.328 5.924 106.272 5.924C106.216 5.916 106.16 5.912 106.104 5.912C105.536 5.912 105.084 6.08 104.748 6.416C104.412 6.744 104.244 7.236 104.244 7.892V11H102.744Z" fill="#1DBF73"/>
<circle cx="233.5" cy="37.5" r="12.5" fill="#E6EAEF"/>
<path d="M192.45 11.096C191.81 11.096 191.218 10.992 190.674 10.784C190.138 10.568 189.67 10.268 189.27 9.884C188.878 9.492 188.57 9.036 188.346 8.516C188.122 7.996 188.01 7.424 188.01 6.8C188.01 6.176 188.122 5.604 188.346 5.084C188.57 4.564 188.882 4.112 189.282 3.728C189.682 3.336 190.15 3.036 190.686 2.828C191.23 2.612 191.822 2.504 192.462 2.504C193.11 2.504 193.706 2.616 194.25 2.84C194.802 3.056 195.27 3.38 195.654 3.812L194.874 4.568C194.554 4.232 194.194 3.984 193.794 3.824C193.394 3.656 192.966 3.572 192.51 3.572C192.038 3.572 191.598 3.652 191.19 3.812C190.79 3.972 190.442 4.196 190.146 4.484C189.85 4.772 189.618 5.116 189.45 5.516C189.29 5.908 189.21 6.336 189.21 6.8C189.21 7.264 189.29 7.696 189.45 8.096C189.618 8.488 189.85 8.828 190.146 9.116C190.442 9.404 190.79 9.628 191.19 9.788C191.598 9.948 192.038 10.028 192.51 10.028C192.966 10.028 193.394 9.948 193.794 9.788C194.194 9.62 194.554 9.364 194.874 9.02L195.654 9.776C195.27 10.208 194.802 10.536 194.25 10.76C193.706 10.984 193.106 11.096 192.45 11.096ZM199.652 11.072C199.012 11.072 198.444 10.932 197.948 10.652C197.452 10.372 197.06 9.988 196.772 9.5C196.484 9.004 196.34 8.444 196.34 7.82C196.34 7.188 196.484 6.628 196.772 6.14C197.06 5.652 197.452 5.272 197.948 5C198.444 4.72 199.012 4.58 199.652 4.58C200.284 4.58 200.848 4.72 201.344 5C201.848 5.272 202.24 5.652 202.52 6.14C202.808 6.62 202.952 7.18 202.952 7.82C202.952 8.452 202.808 9.012 202.52 9.5C202.24 9.988 201.848 10.372 201.344 10.652C200.848 10.932 200.284 11.072 199.652 11.072ZM199.652 10.064C200.06 10.064 200.424 9.972 200.744 9.788C201.072 9.604 201.328 9.344 201.512 9.008C201.696 8.664 201.788 8.268 201.788 7.82C201.788 7.364 201.696 6.972 201.512 6.644C201.328 6.308 201.072 6.048 200.744 5.864C200.424 5.68 200.06 5.588 199.652 5.588C199.244 5.588 198.88 5.68 198.56 5.864C198.24 6.048 197.984 6.308 197.792 6.644C197.6 6.972 197.504 7.364 197.504 7.82C197.504 8.268 197.6 8.664 197.792 9.008C197.984 9.344 198.24 9.604 198.56 9.788C198.88 9.972 199.244 10.064 199.652 10.064ZM212.501 4.58C213.013 4.58 213.465 4.68 213.857 4.88C214.249 5.08 214.553 5.384 214.769 5.792C214.993 6.2 215.105 6.716 215.105 7.34V11H213.953V7.472C213.953 6.856 213.809 6.392 213.521 6.08C213.233 5.768 212.829 5.612 212.309 5.612C211.925 5.612 211.589 5.692 211.301 5.852C211.013 6.012 210.789 6.248 210.629 6.56C210.477 6.872 210.401 7.26 210.401 7.724V11H209.249V7.472C209.249 6.856 209.105 6.392 208.817 6.08C208.537 5.768 208.133 5.612 207.605 5.612C207.229 5.612 206.897 5.692 206.609 5.852C206.321 6.012 206.097 6.248 205.937 6.56C205.777 6.872 205.697 7.26 205.697 7.724V11H204.545V4.64H205.649V6.332L205.469 5.9C205.669 5.484 205.977 5.16 206.393 4.928C206.809 4.696 207.293 4.58 207.845 4.58C208.453 4.58 208.977 4.732 209.417 5.036C209.857 5.332 210.145 5.784 210.281 6.392L209.813 6.2C210.005 5.712 210.341 5.32 210.821 5.024C211.301 4.728 211.861 4.58 212.501 4.58ZM220.597 11.072C220.069 11.072 219.585 10.952 219.145 10.712C218.713 10.464 218.365 10.1 218.101 9.62C217.845 9.14 217.717 8.54 217.717 7.82C217.717 7.1 217.841 6.5 218.089 6.02C218.345 5.54 218.689 5.18 219.121 4.94C219.561 4.7 220.053 4.58 220.597 4.58C221.221 4.58 221.773 4.716 222.253 4.988C222.733 5.26 223.113 5.64 223.393 6.128C223.673 6.608 223.813 7.172 223.813 7.82C223.813 8.468 223.673 9.036 223.393 9.524C223.113 10.012 222.733 10.392 222.253 10.664C221.773 10.936 221.221 11.072 220.597 11.072ZM217.225 13.328V4.64H218.329V6.356L218.257 7.832L218.377 9.308V13.328H217.225ZM220.501 10.064C220.909 10.064 221.273 9.972 221.593 9.788C221.921 9.604 222.177 9.344 222.361 9.008C222.553 8.664 222.649 8.268 222.649 7.82C222.649 7.364 222.553 6.972 222.361 6.644C222.177 6.308 221.921 6.048 221.593 5.864C221.273 5.68 220.909 5.588 220.501 5.588C220.101 5.588 219.737 5.68 219.409 5.864C219.089 6.048 218.833 6.308 218.641 6.644C218.457 6.972 218.365 7.364 218.365 7.82C218.365 8.268 218.457 8.664 218.641 9.008C218.833 9.344 219.089 9.604 219.409 9.788C219.737 9.972 220.101 10.064 220.501 10.064ZM225.405 11V2.096H226.557V11H225.405ZM231.588 11.072C230.908 11.072 230.308 10.932 229.788 10.652C229.276 10.372 228.876 9.988 228.588 9.5C228.308 9.012 228.168 8.452 228.168 7.82C228.168 7.188 228.304 6.628 228.576 6.14C228.856 5.652 229.236 5.272 229.716 5C230.204 4.72 230.752 4.58 231.36 4.58C231.976 4.58 232.52 4.716 232.992 4.988C233.464 5.26 233.832 5.644 234.096 6.14C234.368 6.628 234.504 7.2 234.504 7.856C234.504 7.904 234.5 7.96 234.492 8.024C234.492 8.088 234.488 8.148 234.48 8.204H229.068V7.376H233.88L233.412 7.664C233.42 7.256 233.336 6.892 233.16 6.572C232.984 6.252 232.74 6.004 232.428 5.828C232.124 5.644 231.768 5.552 231.36 5.552C230.96 5.552 230.604 5.644 230.292 5.828C229.98 6.004 229.736 6.256 229.56 6.584C229.384 6.904 229.296 7.272 229.296 7.688V7.88C229.296 8.304 229.392 8.684 229.584 9.02C229.784 9.348 230.06 9.604 230.412 9.788C230.764 9.972 231.168 10.064 231.624 10.064C232 10.064 232.34 10 232.644 9.872C232.956 9.744 233.228 9.552 233.46 9.296L234.096 10.04C233.808 10.376 233.448 10.632 233.016 10.808C232.592 10.984 232.116 11.072 231.588 11.072ZM238.288 11.072C237.648 11.072 237.152 10.9 236.8 10.556C236.448 10.212 236.272 9.72 236.272 9.08V3.248H237.424V9.032C237.424 9.376 237.508 9.64 237.676 9.824C237.852 10.008 238.1 10.1 238.42 10.1C238.78 10.1 239.08 10 239.32 9.8L239.68 10.628C239.504 10.78 239.292 10.892 239.044 10.964C238.804 11.036 238.552 11.072 238.288 11.072ZM235.192 5.588V4.64H239.248V5.588H235.192ZM243.694 11.072C243.014 11.072 242.414 10.932 241.894 10.652C241.382 10.372 240.982 9.988 240.694 9.5C240.414 9.012 240.274 8.452 240.274 7.82C240.274 7.188 240.41 6.628 240.682 6.14C240.962 5.652 241.342 5.272 241.822 5C242.31 4.72 242.858 4.58 243.466 4.58C244.082 4.58 244.626 4.716 245.098 4.988C245.57 5.26 245.938 5.644 246.202 6.14C246.474 6.628 246.61 7.2 246.61 7.856C246.61 7.904 246.606 7.96 246.598 8.024C246.598 8.088 246.594 8.148 246.586 8.204H241.174V7.376H245.986L245.518 7.664C245.526 7.256 245.442 6.892 245.266 6.572C245.09 6.252 244.846 6.004 244.534 5.828C244.23 5.644 243.874 5.552 243.466 5.552C243.066 5.552 242.71 5.644 242.398 5.828C242.086 6.004 241.842 6.256 241.666 6.584C241.49 6.904 241.402 7.272 241.402 7.688V7.88C241.402 8.304 241.498 8.684 241.69 9.02C241.89 9.348 242.166 9.604 242.518 9.788C242.87 9.972 243.274 10.064 243.73 10.064C244.106 10.064 244.446 10 244.75 9.872C245.062 9.744 245.334 9.552 245.566 9.296L246.202 10.04C245.914 10.376 245.554 10.632 245.122 10.808C244.698 10.984 244.222 11.072 243.694 11.072ZM251.6 11V2.6H255.14C256.036 2.6 256.824 2.776 257.504 3.128C258.192 3.48 258.724 3.972 259.1 4.604C259.484 5.236 259.676 5.968 259.676 6.8C259.676 7.632 259.484 8.364 259.1 8.996C258.724 9.628 258.192 10.12 257.504 10.472C256.824 10.824 256.036 11 255.14 11H251.6ZM252.8 9.956H255.068C255.764 9.956 256.364 9.824 256.868 9.56C257.38 9.296 257.776 8.928 258.056 8.456C258.336 7.976 258.476 7.424 258.476 6.8C258.476 6.168 258.336 5.616 258.056 5.144C257.776 4.672 257.38 4.304 256.868 4.04C256.364 3.776 255.764 3.644 255.068 3.644H252.8V9.956ZM265.294 11V9.656L265.234 9.404V7.112C265.234 6.624 265.09 6.248 264.802 5.984C264.522 5.712 264.098 5.576 263.53 5.576C263.154 5.576 262.786 5.64 262.426 5.768C262.066 5.888 261.762 6.052 261.514 6.26L261.034 5.396C261.362 5.132 261.754 4.932 262.21 4.796C262.674 4.652 263.158 4.58 263.662 4.58C264.534 4.58 265.206 4.792 265.678 5.216C266.15 5.64 266.386 6.288 266.386 7.16V11H265.294ZM263.206 11.072C262.734 11.072 262.318 10.992 261.958 10.832C261.606 10.672 261.334 10.452 261.142 10.172C260.95 9.884 260.854 9.56 260.854 9.2C260.854 8.856 260.934 8.544 261.094 8.264C261.262 7.984 261.53 7.76 261.898 7.592C262.274 7.424 262.778 7.34 263.41 7.34H265.426V8.168H263.458C262.882 8.168 262.494 8.264 262.294 8.456C262.094 8.648 261.994 8.88 261.994 9.152C261.994 9.464 262.118 9.716 262.366 9.908C262.614 10.092 262.958 10.184 263.398 10.184C263.83 10.184 264.206 10.088 264.526 9.896C264.854 9.704 265.09 9.424 265.234 9.056L265.462 9.848C265.31 10.224 265.042 10.524 264.658 10.748C264.274 10.964 263.79 11.072 263.206 11.072ZM270.702 11.072C270.062 11.072 269.566 10.9 269.214 10.556C268.862 10.212 268.686 9.72 268.686 9.08V3.248H269.838V9.032C269.838 9.376 269.922 9.64 270.09 9.824C270.266 10.008 270.514 10.1 270.834 10.1C271.194 10.1 271.494 10 271.734 9.8L272.094 10.628C271.918 10.78 271.706 10.892 271.458 10.964C271.218 11.036 270.966 11.072 270.702 11.072ZM267.606 5.588V4.64H271.662V5.588H267.606ZM277.435 11V9.656L277.375 9.404V7.112C277.375 6.624 277.231 6.248 276.943 5.984C276.663 5.712 276.239 5.576 275.671 5.576C275.295 5.576 274.927 5.64 274.567 5.768C274.207 5.888 273.903 6.052 273.655 6.26L273.175 5.396C273.503 5.132 273.895 4.932 274.351 4.796C274.815 4.652 275.299 4.58 275.803 4.58C276.675 4.58 277.347 4.792 277.819 5.216C278.291 5.64 278.527 6.288 278.527 7.16V11H277.435ZM275.347 11.072C274.875 11.072 274.459 10.992 274.099 10.832C273.747 10.672 273.475 10.452 273.283 10.172C273.091 9.884 272.995 9.56 272.995 9.2C272.995 8.856 273.075 8.544 273.235 8.264C273.403 7.984 273.671 7.76 274.039 7.592C274.415 7.424 274.919 7.34 275.551 7.34H277.567V8.168H275.599C275.023 8.168 274.635 8.264 274.435 8.456C274.235 8.648 274.135 8.88 274.135 9.152C274.135 9.464 274.259 9.716 274.507 9.908C274.755 10.092 275.099 10.184 275.539 10.184C275.971 10.184 276.347 10.088 276.667 9.896C276.995 9.704 277.231 9.424 277.375 9.056L277.603 9.848C277.451 10.224 277.183 10.524 276.799 10.748C276.415 10.964 275.931 11.072 275.347 11.072Z" fill="#C3C5C8"/>
</svg>
