<svg width="27" height="26" viewBox="0 0 27 26" fill="none" xmlns="http://www.w3.org/2000/svg">
<path d="M13.5 2.4375C11.4109 2.4375 9.36879 3.05698 7.63179 4.2176C5.8948 5.37822 4.54098 7.02786 3.74153 8.95791C2.94208 10.8879 2.7329 13.0117 3.14046 15.0606C3.54802 17.1096 4.554 18.9916 6.03119 20.4688C7.50838 21.946 9.39044 22.952 11.4394 23.3595C13.4883 23.7671 15.6121 23.5579 17.5421 22.7585C19.4721 21.959 21.1218 20.6052 22.2824 18.8682C23.443 17.1312 24.0625 15.0891 24.0625 13C24.0595 10.1996 22.9458 7.51466 20.9656 5.53445C18.9853 3.55424 16.3004 2.44046 13.5 2.4375ZM8.02375 20.0586C8.61153 19.1393 9.42126 18.3828 10.3783 17.8588C11.3353 17.3348 12.4089 17.0601 13.5 17.0601C14.5911 17.0601 15.6647 17.3348 16.6217 17.8588C17.5787 18.3828 18.3885 19.1393 18.9763 20.0586C17.4105 21.2763 15.4835 21.9374 13.5 21.9374C11.5165 21.9374 9.58951 21.2763 8.02375 20.0586ZM10.25 12.1875C10.25 11.5447 10.4406 10.9164 10.7977 10.3819C11.1548 9.84744 11.6624 9.43088 12.2563 9.18489C12.8501 8.93891 13.5036 8.87455 14.134 8.99995C14.7645 9.12535 15.3436 9.43488 15.7981 9.8894C16.2526 10.3439 16.5622 10.923 16.6876 11.5535C16.813 12.1839 16.7486 12.8374 16.5026 13.4312C16.2566 14.0251 15.8401 14.5327 15.3056 14.8898C14.7711 15.2469 14.1428 15.4375 13.5 15.4375C12.6381 15.4375 11.8114 15.0951 11.2019 14.4856C10.5924 13.8761 10.25 13.0495 10.25 12.1875ZM20.1788 18.9323C19.2726 17.6191 17.9984 16.6033 16.5164 16.0123C17.3125 15.3853 17.8934 14.5259 18.1783 13.5534C18.4632 12.581 18.4381 11.5439 18.1063 10.5864C17.7745 9.62894 17.1526 8.79865 16.327 8.21101C15.5015 7.62338 14.5133 7.3076 13.5 7.3076C12.4867 7.3076 11.4985 7.62338 10.673 8.21101C9.84743 8.79865 9.22551 9.62894 8.89372 10.5864C8.56194 11.5439 8.53676 12.581 8.8217 13.5534C9.10664 14.5259 9.68754 15.3853 10.4836 16.0123C9.00162 16.6033 7.72743 17.6191 6.82125 18.9323C5.67621 17.6446 4.9278 16.0534 4.66614 14.3503C4.40449 12.6471 4.64075 10.9047 5.34648 9.33268C6.05221 7.7607 7.19731 6.42624 8.6439 5.49C10.0905 4.55375 11.7769 4.05564 13.5 4.05564C15.2231 4.05564 16.9095 4.55375 18.3561 5.49C19.8027 6.42624 20.9478 7.7607 21.6535 9.33268C22.3593 10.9047 22.5955 12.6471 22.3339 14.3503C22.0722 16.0534 21.3238 17.6446 20.1788 18.9323Z" fill="#C3C5C8"/>
</svg>
